<svg width="150" height="64" viewBox="0 0 2043 768" fill="none" xmlns="http://www.w3.org/2000/svg">
<path d="M521.336 419.64C521.336 390.285 526.797 364.515 537.72 342.328C548.984 320.141 564.173 303.075 583.288 291.128C602.403 279.181 623.736 273.208 647.288 273.208C667.427 273.208 685.005 277.304 700.024 285.496C715.384 293.688 727.16 304.44 735.352 317.752V277.304H822.904V563H735.352V522.552C726.819 535.864 714.872 546.616 699.512 554.808C684.493 563 666.915 567.096 646.776 567.096C623.565 567.096 602.403 561.123 583.288 549.176C564.173 536.888 548.984 519.651 537.72 497.464C526.797 474.936 521.336 448.995 521.336 419.64ZM735.352 420.152C735.352 398.307 729.208 381.069 716.92 368.44C704.973 355.811 690.296 349.496 672.888 349.496C655.48 349.496 640.632 355.811 628.344 368.44C616.397 380.728 610.424 397.795 610.424 419.64C610.424 441.485 616.397 458.893 628.344 471.864C640.632 484.493 655.48 490.808 672.888 490.808C690.296 490.808 704.973 484.493 716.92 471.864C729.208 459.235 735.352 441.997 735.352 420.152ZM1060.32 274.232C1093.77 274.232 1120.4 285.155 1140.2 307C1160.33 328.504 1170.4 358.2 1170.4 396.088V563H1083.36V407.864C1083.36 388.749 1078.41 373.901 1068.52 363.32C1058.62 352.739 1045.31 347.448 1028.58 347.448C1011.85 347.448 998.543 352.739 988.644 363.32C978.745 373.901 973.796 388.749 973.796 407.864V563H886.244V277.304H973.796V315.192C982.671 302.563 994.617 292.664 1009.64 285.496C1024.65 277.987 1041.55 274.232 1060.32 274.232ZM1213.84 419.64C1213.84 390.285 1219.3 364.515 1230.22 342.328C1241.48 320.141 1256.67 303.075 1275.79 291.128C1294.9 279.181 1316.24 273.208 1339.79 273.208C1359.93 273.208 1377.51 277.304 1392.52 285.496C1407.88 293.688 1419.66 304.44 1427.85 317.752V277.304H1515.4V563H1427.85V522.552C1419.32 535.864 1407.37 546.616 1392.01 554.808C1376.99 563 1359.41 567.096 1339.28 567.096C1316.07 567.096 1294.9 561.123 1275.79 549.176C1256.67 536.888 1241.48 519.651 1230.22 497.464C1219.3 474.936 1213.84 448.995 1213.84 419.64ZM1427.85 420.152C1427.85 398.307 1421.71 381.069 1409.42 368.44C1397.47 355.811 1382.8 349.496 1365.39 349.496C1347.98 349.496 1333.13 355.811 1320.84 368.44C1308.9 380.728 1302.92 397.795 1302.92 419.64C1302.92 441.485 1308.9 458.893 1320.84 471.864C1333.13 484.493 1347.98 490.808 1365.39 490.808C1382.8 490.808 1397.47 484.493 1409.42 471.864C1421.71 459.235 1427.85 441.997 1427.85 420.152ZM1622.78 247.608C1607.42 247.608 1594.79 243.171 1584.89 234.296C1575.33 225.08 1570.55 213.816 1570.55 200.504C1570.55 186.851 1575.33 175.587 1584.89 166.712C1594.79 157.496 1607.42 152.888 1622.78 152.888C1637.79 152.888 1650.08 157.496 1659.64 166.712C1669.54 175.587 1674.49 186.851 1674.49 200.504C1674.49 213.816 1669.54 225.08 1659.64 234.296C1650.08 243.171 1637.79 247.608 1622.78 247.608ZM1666.3 277.304V563H1578.74V277.304H1666.3ZM1903.82 274.232C1937.27 274.232 1963.9 285.155 1983.7 307C2003.83 328.504 2013.9 358.2 2013.9 396.088V563H1926.86V407.864C1926.86 388.749 1921.91 373.901 1912.02 363.32C1902.12 352.739 1888.81 347.448 1872.08 347.448C1855.35 347.448 1842.04 352.739 1832.14 363.32C1822.25 373.901 1817.3 388.749 1817.3 407.864V563H1729.74V277.304H1817.3V315.192C1826.17 302.563 1838.12 292.664 1853.14 285.496C1868.15 277.987 1885.05 274.232 1903.82 274.232Z" fill="#3b82f6"/>
<path d="M84.9988 304.666V562.63H1.52588e-05V246.11L84.9988 304.666Z" fill="#3b82f6"/>
<path d="M108.276 562.728H319.092C344.434 562.639 369.244 555.454 390.712 541.987C412.18 528.52 429.447 509.31 440.557 486.533L440.952 485.676C460.493 445.979 470.886 402.406 471.365 358.162C471.845 313.919 462.398 270.131 443.722 230.02L443.326 229.196C432.856 206.52 416.132 187.305 395.117 173.807C374.103 160.31 349.673 153.091 324.697 153H161.03L112.068 230.053H263.009C331.885 230.053 388.496 287.257 388.924 358.639V361.475C388.529 430.45 333.731 485.873 266.932 485.873H108.276V562.728Z" fill="#3b82f6"/>
<path d="M84.9988 229.459H0V153L84.9988 229.459Z" fill="#3b82f6"/>
</svg>
